# xmcd
#
# Track frame offsets: 
#        150
#        21750
#        40209
#        58094
#        79896
#        92961
#        111278
#        136872
#        158479
#        177249
#        192206
#        216508
#        233344
#        250003
#        269172
#        296043
#        320429
#        334764
#
# Disc length: 4745 seconds
#
# Revision: 2
# Processed by: cddbd v1.5.2PL0 Copyright (c) Steve Scherf et al.
# Submitted via: ExactAudioCopyFreeDBPlugin 1.0
#
DISCID=05128712
DTITLE=松崎しげる - Shigeru Matsuzaki 40th Anniversary All Time Best Old and 
DTITLE=New -I`m A Singer-
DYEAR=2011
DGENRE=JPops
TTITLE0=愛のメモリー
TTITLE1=ワンダフルモーメント
TTITLE2=素肌物語
TTITLE3=愛の形見
TTITLE4=ただそれだけ
TTITLE5=愛の6日間
TTITLE6=抜け殻
TTITLE7=題名のない愛の唄 ～Shetland Air～
TTITLE8=あの夏の日
TTITLE9=Stardust
TTITLE10=スタートライン ～ 新しい風
TTITLE11=I Gave You My Love
TTITLE12=俺たちの朝
TTITLE13=あの輝きを忘れない
TTITLE14=ひとりひとりの心に深く
TTITLE15=君がいればそれでいい
TTITLE16=ガール・ガール・ガール
TTITLE17=夏の恋人
EXTD=Powerd by gracenote music web API
EXTT0=
EXTT1=
EXTT2=
EXTT3=
EXTT4=
EXTT5=
EXTT6=
EXTT7=
EXTT8=
EXTT9=
EXTT10=
EXTT11=
EXTT12=
EXTT13=
EXTT14=
EXTT15=
EXTT16=
EXTT17=
PLAYORDER=
